<svg clip-rule="evenodd" fill-rule="evenodd" stroke-linejoin="round" stroke-miterlimit="1.41421" viewBox="0 0 1024 382" xmlns="http://www.w3.org/2000/svg"><path d="m549.694 487.528-468.48-.122 117.897-69.715-.001.114-.044 27.227 159.089-86.587.045 23.482 139.301-70.628-.001 19.299 133.349-60.859-.049 19.128 137.6-64v20.428l184.709-82.747-248.849 251.108.04-24.892-98.991 81.265.03-22.511zm-79.958-39.672v-52.899l-21.588 10.067v10.134l12.989-6.057v32.408l-25.064 11.688v-54.904l25.064-11.688v4.232l8.599-4.01v-14.7l-42.262 19.707v75.729zm44.092-20.56v-54.681l-33.663 15.697v10.469l25.064-11.688v8.464l-25.064 11.688v35.749zm-8.599-6.459-16.466 7.678v-14.812l16.466-7.678zm51.867-13.717v-35.749l-24.241 11.304v-8.464l15.551-7.252v4.232l8.69-4.052v-14.701l-32.84 15.314v29.401l24.15-11.261v14.812l-15.551 7.251v-5.568l-8.599 4.009v16.037zm41.439-19.324v-16.036l-8.69 4.052v5.568l-13.813 6.441v-33.744l13.813-6.441v4.232l8.69-4.052v-14.701l-31.102 14.503v54.682zm42.262-19.707v-54.681l-33.663 15.698v10.468l25.064-11.688v8.464l-25.064 11.688v35.749zm-8.599-6.458-16.465 7.678v-14.812l16.465-7.678zm52.691-14.102v-54.681l-33.664 15.697v54.682l8.599-4.01v-44.213l16.466-7.678v44.213z" fill="#f5d33c" transform="matrix(1.17445 0 0 1.17445 -95.3823 -190.905)"/></svg>